# xmcd CD database file
#
# Track frame offsets:
#	150
#	85515
#	158807
#	222806
#
# Disc length: 3843 seconds
#
# Revision: 0
# Processed by: cddbd v1.5.2PL0 Copyright (c) Steve Scherf et al.
# Submitted via: CDex 1.70beta2
#
DISCID=250f0104
DTITLE=Jay Gee - Bagavad Gita [CD2)
DYEAR=2003
DGENRE=New Age
TTITLE0=Ch06: Dhyana-Yoga
TTITLE1=Ch07: Knowledge of the Absolute
TTITLE2=Ch08: Attaining the Supreme
TTITLE3=Ch09: The most confidential knowledge
EXTD=YEAR: 2003
EXTT0=
EXTT1=
EXTT2=
EXTT3=
PLAYORDER=
